<mxfile host="app.diagrams.net" agent="Mozilla/5.0 (Windows NT 10.0; Win64; x64) AppleWebKit/537.36 (KHTML, like Gecko) Chrome/138.0.0.0 Safari/537.36" version="28.0.6">
  <diagram id="C5RBs43oDa-KdzZeNtuy" name="Page-1">
    <mxGraphModel dx="2696" dy="1636" grid="1" gridSize="10" guides="1" tooltips="1" connect="1" arrows="1" fold="1" page="1" pageScale="1" pageWidth="827" pageHeight="1169" math="0" shadow="0">
      <root>
        <mxCell id="WIyWlLk6GJQsqaUBKTNV-0" />
        <mxCell id="WIyWlLk6GJQsqaUBKTNV-1" parent="WIyWlLk6GJQsqaUBKTNV-0" />
        <mxCell id="zGOJWWYDb3XvuiAuZk6y-10" style="edgeStyle=orthogonalEdgeStyle;rounded=0;orthogonalLoop=1;jettySize=auto;html=1;exitX=0.5;exitY=1;exitDx=0;exitDy=0;entryX=0.5;entryY=0;entryDx=0;entryDy=0;" edge="1" parent="WIyWlLk6GJQsqaUBKTNV-1" source="zGOJWWYDb3XvuiAuZk6y-0" target="zGOJWWYDb3XvuiAuZk6y-5">
          <mxGeometry relative="1" as="geometry" />
        </mxCell>
        <mxCell id="zGOJWWYDb3XvuiAuZk6y-18" style="edgeStyle=orthogonalEdgeStyle;rounded=0;orthogonalLoop=1;jettySize=auto;html=1;exitX=0.5;exitY=0;exitDx=0;exitDy=0;entryX=0.5;entryY=1;entryDx=0;entryDy=0;" edge="1" parent="WIyWlLk6GJQsqaUBKTNV-1" source="zGOJWWYDb3XvuiAuZk6y-0" target="zGOJWWYDb3XvuiAuZk6y-1">
          <mxGeometry relative="1" as="geometry" />
        </mxCell>
        <mxCell id="zGOJWWYDb3XvuiAuZk6y-0" value="DROPMUSE&lt;div&gt;PLATFORM&lt;/div&gt;" style="rounded=0;whiteSpace=wrap;html=1;fillColor=#ffe6cc;strokeColor=#d79b00;" vertex="1" parent="WIyWlLk6GJQsqaUBKTNV-1">
          <mxGeometry x="320" y="480" width="120" height="60" as="geometry" />
        </mxCell>
        <mxCell id="zGOJWWYDb3XvuiAuZk6y-1" value="STREAMING SERVICES&lt;div&gt;(SPOTIFY, APPLE MUSIC,)&lt;/div&gt;" style="rounded=1;whiteSpace=wrap;html=1;fillColor=#d5e8d4;strokeColor=#82b366;" vertex="1" parent="WIyWlLk6GJQsqaUBKTNV-1">
          <mxGeometry x="320" y="330" width="120" height="60" as="geometry" />
        </mxCell>
        <mxCell id="zGOJWWYDb3XvuiAuZk6y-7" style="edgeStyle=orthogonalEdgeStyle;rounded=0;orthogonalLoop=1;jettySize=auto;html=1;exitX=0.5;exitY=1;exitDx=0;exitDy=0;entryX=0.5;entryY=0;entryDx=0;entryDy=0;" edge="1" parent="WIyWlLk6GJQsqaUBKTNV-1" source="zGOJWWYDb3XvuiAuZk6y-2" target="zGOJWWYDb3XvuiAuZk6y-6">
          <mxGeometry relative="1" as="geometry" />
        </mxCell>
        <mxCell id="zGOJWWYDb3XvuiAuZk6y-2" value="USER&lt;div&gt;(ARTIST/LABEL)&lt;/div&gt;" style="rounded=0;whiteSpace=wrap;html=1;fillColor=#ffe6cc;strokeColor=#d79b00;" vertex="1" parent="WIyWlLk6GJQsqaUBKTNV-1">
          <mxGeometry x="140" y="480" width="120" height="60" as="geometry" />
        </mxCell>
        <mxCell id="zGOJWWYDb3XvuiAuZk6y-3" value="ADMIN/MODERATOR" style="rounded=0;whiteSpace=wrap;html=1;fillColor=#ffe6cc;strokeColor=#d79b00;" vertex="1" parent="WIyWlLk6GJQsqaUBKTNV-1">
          <mxGeometry x="530" y="480" width="120" height="60" as="geometry" />
        </mxCell>
        <mxCell id="zGOJWWYDb3XvuiAuZk6y-5" value="PAYMENT GATEWAY" style="rounded=1;whiteSpace=wrap;html=1;fillColor=#d5e8d4;strokeColor=#82b366;" vertex="1" parent="WIyWlLk6GJQsqaUBKTNV-1">
          <mxGeometry x="320" y="630" width="120" height="60" as="geometry" />
        </mxCell>
        <mxCell id="zGOJWWYDb3XvuiAuZk6y-6" value="SUPPORT SYSTEM" style="rounded=0;whiteSpace=wrap;html=1;fillColor=#ffe6cc;strokeColor=#d79b00;" vertex="1" parent="WIyWlLk6GJQsqaUBKTNV-1">
          <mxGeometry x="140" y="630" width="120" height="60" as="geometry" />
        </mxCell>
        <mxCell id="zGOJWWYDb3XvuiAuZk6y-8" value="Support Request" style="text;html=1;align=center;verticalAlign=middle;resizable=0;points=[];autosize=1;fillColor=none;fontColor=#333333;strokeColor=none;gradientColor=none;rounded=1;arcSize=50;" vertex="1" parent="WIyWlLk6GJQsqaUBKTNV-1">
          <mxGeometry x="190" y="570" width="110" height="30" as="geometry" />
        </mxCell>
        <mxCell id="zGOJWWYDb3XvuiAuZk6y-9" value="Payment Processing" style="text;html=1;align=center;verticalAlign=middle;resizable=0;points=[];autosize=1;fillColor=none;fontColor=#333333;strokeColor=none;gradientColor=none;rounded=1;arcSize=50;" vertex="1" parent="WIyWlLk6GJQsqaUBKTNV-1">
          <mxGeometry x="390" y="580" width="130" height="30" as="geometry" />
        </mxCell>
        <mxCell id="zGOJWWYDb3XvuiAuZk6y-12" value="Manage" style="text;html=1;align=center;verticalAlign=middle;resizable=0;points=[];autosize=1;fillColor=none;fontColor=#333333;strokeColor=none;gradientColor=none;rounded=1;arcSize=50;" vertex="1" parent="WIyWlLk6GJQsqaUBKTNV-1">
          <mxGeometry x="450" y="480" width="70" height="30" as="geometry" />
        </mxCell>
        <mxCell id="zGOJWWYDb3XvuiAuZk6y-15" value="" style="endArrow=classic;startArrow=classic;html=1;rounded=0;entryX=0;entryY=0.5;entryDx=0;entryDy=0;" edge="1" parent="WIyWlLk6GJQsqaUBKTNV-1" source="zGOJWWYDb3XvuiAuZk6y-0" target="zGOJWWYDb3XvuiAuZk6y-3">
          <mxGeometry width="50" height="50" relative="1" as="geometry">
            <mxPoint x="440" y="560" as="sourcePoint" />
            <mxPoint x="510.71067811865476" y="510" as="targetPoint" />
          </mxGeometry>
        </mxCell>
        <mxCell id="zGOJWWYDb3XvuiAuZk6y-16" value="" style="endArrow=classic;startArrow=classic;html=1;rounded=0;" edge="1" parent="WIyWlLk6GJQsqaUBKTNV-1">
          <mxGeometry width="50" height="50" relative="1" as="geometry">
            <mxPoint x="260" y="509.6" as="sourcePoint" />
            <mxPoint x="320" y="510" as="targetPoint" />
          </mxGeometry>
        </mxCell>
        <mxCell id="zGOJWWYDb3XvuiAuZk6y-17" value="Uploads&lt;div&gt;&lt;br&gt;&lt;/div&gt;&lt;div&gt;Metadata&lt;/div&gt;" style="text;html=1;align=center;verticalAlign=middle;resizable=0;points=[];autosize=1;fillColor=none;fontColor=#333333;strokeColor=none;gradientColor=none;rounded=1;arcSize=50;" vertex="1" parent="WIyWlLk6GJQsqaUBKTNV-1">
          <mxGeometry x="250" y="480" width="70" height="60" as="geometry" />
        </mxCell>
        <mxCell id="zGOJWWYDb3XvuiAuZk6y-19" value="Music Distribution" style="text;html=1;align=center;verticalAlign=middle;resizable=0;points=[];autosize=1;strokeColor=none;fillColor=none;" vertex="1" parent="WIyWlLk6GJQsqaUBKTNV-1">
          <mxGeometry x="390" y="410" width="120" height="30" as="geometry" />
        </mxCell>
      </root>
    </mxGraphModel>
  </diagram>
</mxfile>
